{"title":"Street.Dance.3D.2010.DVDScr.H264.FEEL-FREE","uid":5791198,"size":1036096018,"categoryP":"video","categoryS":"movies","magnet":"?xt=urn:btih:fae559fad1aebde73d11a404e8204fb1b54ba6c0&amp;dn=Street.Dance.3D.2010.DVDScr.H264.FEEL-FREE&amp;tr=udp%3A%2F%2Ftracker.openbittorrent.com%3A80&amp;tr=udp%3A%2F%2Fopen.demonii.com%3A1337&amp;tr=udp%3A%2F%2Ftracker.coppersurfer.tk%3A6969&amp;tr=udp%3A%2F%2Fexodus.desync.com%3A6969","seeders":0,"leechers":1,"uploader":"neon","files":-1,"time":1282853062,"description":"Genre:Drama\nLanguage:English\n &lt;a href=&quot; http://www.imdb.com/title/tt1447972/&quot; rel=&quot;nofollow&quot; target=&quot;_NEW&quot;&gt; http://www.imdb.com/title/tt1447972/&lt;/a&gt;\nSource:KTH\nSubtitles:no\nSample;Yes\n\nGeneral\nComplete name : Street.Dance.3D.2010.DVDScr.H264.FEEL-FREE\nFormat : MPEG-4\nFormat profile : Base Media\nCodec ID : isom\nFile size : 964 MiB\nDuration : 1h 38mn\nOverall bit rate : 1 369 Kbps\nVideo #1\nCodec ID : 20\nDuration : 1h 38mn\nBit rate mode : Variable\nBit rate : 1 199 Kbps\nWidth : 652 pixels\nHeight : 352 pixels\nDisplay aspect ratio : 1.852\nFrame rate mode : Constant\nFrame rate : 23.976 fps\nResolution : 24 bits\nColorimetry : 4:2:0\nScan type : Progressive\nBits/(Pixel*Frame) : 0.218\nStream size : 844 MiB (88%)\nAudio #2\nID : 2\nFormat : AAC\nFormat/Info : Advanced Audio Codec\nFormat version : Version 4\nFormat profile : LC\nFormat settings, SBR : No\nCodec ID : 40\nDuration : 1h 38mn\nBit rate mode : Variable\nBit rate : 165 Kbps\nChannel(s) : 2 channels\nChannel positions : L R\nSampling rate : 48.0 KHz\nResolution : 16 bits\nStream size : 116 MiB (12%)\n\nPlot\nIn order to win the Street Dance Championships, a dance crew is forced to work with ballet dancers from the Royal Dance School in exchange for rehearsal space","torrent":{"xt":"urn:btih:fae559fad1aebde73d11a404e8204fb1b54ba6c0","amp;dn":"Street.Dance.3D.2010.DVDScr.H264.FEEL-FREE","amp;tr":["udp%3A%2F%2Ftracker.openbittorrent.com%3A80","udp%3A%2F%2Fopen.demonii.com%3A1337","udp%3A%2F%2Ftracker.coppersurfer.tk%3A6969","udp%3A%2F%2Fexodus.desync.com%3A6969"],"infoHash":"fae559fad1aebde73d11a404e8204fb1b54ba6c0","infoHashBuffer":{"type":"Buffer","data":[250,229,89,250,209,174,189,231,61,17,164,4,232,32,79,177,181,75,166,192]},"announce":[],"urlList":[]}}